<?xml version="1.0" standalone="no"?>
<!DOCTYPE svg PUBLIC "-//W3C//DTD SVG 20010904//EN"
 "http://www.w3.org/TR/2001/REC-SVG-20010904/DTD/svg10.dtd">
<svg version="1.0" xmlns="http://www.w3.org/2000/svg"
 width="398.000000pt" height="398.000000pt" viewBox="0 0 398.000000 398.000000"
 preserveAspectRatio="xMidYMid meet">
<metadata>
Created by potrace 1.11, written by Peter Selinger 2001-2013
</metadata>
<g transform="translate(0.000000,398.000000) scale(0.100000,-0.100000)"
fill="#000000" stroke="none">
<path d="M0 1990 l0 -1990 1990 0 1990 0 0 1990 0 1990 -1990 0 -1990 0 0
-1990z m1629 -575 c1 -5 -6 -2 -15 7 -10 9 -13 21 -8 29 5 9 9 8 15 -7 4 -10
8 -23 8 -29z m212 30 c29 -15 56 -61 43 -74 -8 -8 -142 -6 -150 2 -3 3 3 16
15 28 12 13 21 31 21 41 0 23 30 24 71 3z m629 -166 c36 -15 51 -29 59 -50 9
-26 8 -29 -15 -35 -13 -3 -53 -1 -88 6 l-63 12 23 23 c13 13 24 33 24 45 0 25
0 25 60 -1z"/>
</g>
</svg>
