<svg xmlns="http://www.w3.org/2000/svg" width="420.495" height="469.552" viewBox="0 0 315.371 352.164"><clipPath id="a"><path transform="matrix(1 0 0 -1 -30.486 368.943)" d="M0 0h595v842H0z"/></clipPath><g clip-path="url(#a)"><path d="m144.704 178.948 6.586-11.407h13.172l6.587 11.407-6.587 11.408H151.29" fill="#802a2a"/><path stroke-width=".0149" stroke-miterlimit="10" fill="none" stroke="#000" d="M151.29 190.356h13.172l6.587-11.408-6.587-11.407H151.29l-6.586 11.407 6.586 11.408z"/><path d="m144.704 201.764 6.586-11.408h13.172l6.587 11.408-6.587 11.408H151.29" fill="#802a2a"/><path stroke-width=".0149" stroke-miterlimit="10" fill="none" stroke="#000" d="M151.29 213.172h13.172l6.587-11.408-6.587-11.408H151.29l-6.586 11.408 6.586 11.408z"/><path d="m164.462 190.356 6.587-11.408h13.172l6.587 11.408-6.587 11.408h-13.172" fill="#802a2a"/><path stroke-width=".0149" stroke-miterlimit="10" fill="none" stroke="#000" d="M171.049 201.764h13.172l6.587-11.408-6.587-11.408h-13.172l-6.587 11.408 6.587 11.408z"/><path d="m164.462 167.541 6.587-11.408h13.172l6.587 11.408-6.587 11.407h-13.172" fill="#802a2a"/><path stroke-width=".0149" stroke-miterlimit="10" fill="none" stroke="#000" d="M171.049 178.948h13.172l6.587-11.407-6.587-11.408h-13.172l-6.587 11.408 6.587 11.407z"/><path d="m144.704 156.133 6.586-11.408h13.172l6.587 11.408-6.587 11.408H151.29" fill="#802a2a"/><path stroke-width=".0149" stroke-miterlimit="10" fill="none" stroke="#000" d="M151.29 167.541h13.172l6.587-11.408-6.587-11.408H151.29l-6.586 11.408 6.586 11.408z"/><path d="m124.945 167.541 6.586-11.408h13.173l6.586 11.408-6.586 11.407h-13.173" fill="#802a2a"/><path stroke-width=".0149" stroke-miterlimit="10" fill="none" stroke="#000" d="M131.531 178.948h13.173l6.586-11.407-6.586-11.408h-13.173l-6.586 11.408 6.586 11.407z"/><path d="m124.945 190.356 6.586-11.408h13.173l6.586 11.408-6.586 11.408h-13.173" fill="#802a2a"/><path stroke-width=".0149" stroke-miterlimit="10" fill="none" stroke="#000" d="M131.531 201.764h13.173l6.586-11.408-6.586-11.408h-13.173l-6.586 11.408 6.586 11.408z"/><path d="m144.704 224.58 6.586-11.408h13.172l6.587 11.408-6.587 11.407H151.29" fill="azure"/><path stroke-width=".0149" stroke-miterlimit="10" fill="none" stroke="#000" d="M151.29 235.987h13.172l6.587-11.407-6.587-11.408H151.29l-6.586 11.408 6.586 11.407z"/><path d="m164.462 213.172 6.587-11.408h13.172l6.587 11.408-6.587 11.408h-13.172" fill="#db2929"/><path stroke-width=".0149" stroke-miterlimit="10" fill="none" stroke="#000" d="M171.049 224.58h13.172l6.587-11.408-6.587-11.408h-13.172l-6.587 11.408 6.587 11.408z"/><path d="m184.221 201.764 6.587-11.408h13.172l6.587 11.408-6.587 11.408h-13.172" fill="azure"/><path stroke-width=".0149" stroke-miterlimit="10" fill="none" stroke="#000" d="M190.808 213.172h13.172l6.587-11.408-6.587-11.408h-13.172l-6.587 11.408 6.587 11.408z"/><path d="m184.221 178.948 6.587-11.407h13.172l6.587 11.407-6.587 11.408h-13.172" fill="#db2929"/><path stroke-width=".0149" stroke-miterlimit="10" fill="none" stroke="#000" d="M190.808 190.356h13.172l6.587-11.408-6.587-11.407h-13.172l-6.587 11.407 6.587 11.408z"/><path d="m184.221 156.133 6.587-11.408h13.172l6.587 11.408-6.587 11.408h-13.172" fill="azure"/><path stroke-width=".0149" stroke-miterlimit="10" fill="none" stroke="#000" d="M190.808 167.541h13.172l6.587-11.408-6.587-11.408h-13.172l-6.587 11.408 6.587 11.408z"/><path d="m164.462 144.725 6.587-11.407h13.172l6.587 11.407-6.587 11.408h-13.172" fill="#db2929"/><path stroke-width=".0149" stroke-miterlimit="10" fill="none" stroke="#000" d="M171.049 156.133h13.172l6.587-11.408-6.587-11.407h-13.172l-6.587 11.407 6.587 11.408z"/><path d="m144.704 133.318 6.586-11.409h13.172l6.587 11.409-6.587 11.407H151.29" fill="azure"/><path stroke-width=".0149" stroke-miterlimit="10" fill="none" stroke="#000" d="M151.29 144.725h13.172l6.587-11.407-6.587-11.409H151.29l-6.586 11.409 6.586 11.407z"/><path d="m124.945 144.725 6.586-11.407h13.173l6.586 11.407-6.586 11.408h-13.173" fill="#db2929"/><path stroke-width=".0149" stroke-miterlimit="10" fill="none" stroke="#000" d="M131.531 156.133h13.173l6.586-11.408-6.586-11.407h-13.173l-6.586 11.407 6.586 11.408z"/><path d="m105.186 156.133 6.587-11.408h13.172l6.586 11.408-6.586 11.408h-13.172" fill="azure"/><path stroke-width=".0149" stroke-miterlimit="10" fill="none" stroke="#000" d="M111.773 167.541h13.172l6.586-11.408-6.586-11.408h-13.172l-6.587 11.408 6.587 11.408z"/><path d="m105.186 178.948 6.587-11.407h13.172l6.586 11.407-6.586 11.408h-13.172" fill="#db2929"/><path stroke-width=".0149" stroke-miterlimit="10" fill="none" stroke="#000" d="M111.773 190.356h13.172l6.586-11.408-6.586-11.407h-13.172l-6.587 11.407 6.587 11.408z"/><path d="m105.186 201.764 6.587-11.408h13.172l6.586 11.408-6.586 11.408h-13.172" fill="azure"/><path stroke-width=".0149" stroke-miterlimit="10" fill="none" stroke="#000" d="M111.773 213.172h13.172l6.586-11.408-6.586-11.408h-13.172l-6.587 11.408 6.587 11.408z"/><path d="m124.945 213.172 6.586-11.408h13.173l6.586 11.408-6.586 11.408h-13.173" fill="#db2929"/><path stroke-width=".0149" stroke-miterlimit="10" fill="none" stroke="#000" d="M131.531 224.58h13.173l6.586-11.408-6.586-11.408h-13.173l-6.586 11.408 6.586 11.408z"/><path d="m144.704 247.395 6.586-11.408h13.172l6.587 11.408-6.587 11.408H151.29" fill="#ffa824"/><path stroke-width=".0149" stroke-miterlimit="10" fill="none" stroke="#000" d="M151.29 258.803h13.172l6.587-11.408-6.587-11.408H151.29l-6.586 11.408 6.586 11.408z"/><path d="m164.462 235.987 6.587-11.407h13.172l6.587 11.407-6.587 11.408h-13.172" fill="#ffa824"/><path stroke-width=".0149" stroke-miterlimit="10" fill="none" stroke="#000" d="M171.049 247.395h13.172l6.587-11.408-6.587-11.407h-13.172l-6.587 11.407 6.587 11.408z"/><path d="m184.221 224.58 6.587-11.408h13.172l6.587 11.408-6.587 11.407h-13.172" fill="#ffa824"/><path stroke-width=".0149" stroke-miterlimit="10" fill="none" stroke="#000" d="M190.808 235.987h13.172l6.587-11.407-6.587-11.408h-13.172l-6.587 11.408 6.587 11.407z"/><path d="m203.98 213.172 6.587-11.408h13.172l6.587 11.408-6.587 11.408h-13.172" fill="#ffa824"/><path stroke-width=".0149" stroke-miterlimit="10" fill="none" stroke="#000" d="M210.567 224.58h13.172l6.587-11.408-6.587-11.408h-13.172l-6.587 11.408 6.587 11.408z"/><path d="m203.98 190.356 6.587-11.408h13.172l6.587 11.408-6.587 11.408h-13.172" fill="#ffa824"/><path stroke-width=".0149" stroke-miterlimit="10" fill="none" stroke="#000" d="M210.567 201.764h13.172l6.587-11.408-6.587-11.408h-13.172l-6.587 11.408 6.587 11.408z"/><path d="m203.98 167.541 6.587-11.408h13.172l6.587 11.408-6.587 11.407h-13.172" fill="#ffa824"/><path stroke-width=".0149" stroke-miterlimit="10" fill="none" stroke="#000" d="M210.567 178.948h13.172l6.587-11.407-6.587-11.408h-13.172l-6.587 11.408 6.587 11.407z"/><path d="m203.98 144.725 6.587-11.407h13.172l6.587 11.407-6.587 11.408h-13.172" fill="#ffa824"/><path stroke-width=".0149" stroke-miterlimit="10" fill="none" stroke="#000" d="M210.567 156.133h13.172l6.587-11.408-6.587-11.407h-13.172l-6.587 11.407 6.587 11.408z"/><path d="m184.221 133.318 6.587-11.409h13.172l6.587 11.409-6.587 11.407h-13.172" fill="#ffa824"/><path stroke-width=".0149" stroke-miterlimit="10" fill="none" stroke="#000" d="M190.808 144.725h13.172l6.587-11.407-6.587-11.409h-13.172l-6.587 11.409 6.587 11.407z"/><path d="m164.462 121.909 6.587-11.407h13.172l6.587 11.407-6.587 11.409h-13.172" fill="#ffa824"/><path stroke-width=".0149" stroke-miterlimit="10" fill="none" stroke="#000" d="M171.049 133.318h13.172l6.587-11.409-6.587-11.407h-13.172l-6.587 11.407 6.587 11.409z"/><path d="m144.704 110.502 6.586-11.408h13.172l6.587 11.408-6.587 11.407H151.29" fill="#ffa824"/><path stroke-width=".0149" stroke-miterlimit="10" fill="none" stroke="#000" d="M151.29 121.909h13.172l6.587-11.407-6.587-11.408H151.29l-6.586 11.408 6.586 11.407z"/><path d="m124.945 121.909 6.586-11.407h13.173l6.586 11.407-6.586 11.409h-13.173" fill="#ffa824"/><path stroke-width=".0149" stroke-miterlimit="10" fill="none" stroke="#000" d="M131.531 133.318h13.173l6.586-11.409-6.586-11.407h-13.173l-6.586 11.407 6.586 11.409z"/><path d="m105.186 133.318 6.587-11.409h13.172l6.586 11.409-6.586 11.407h-13.172" fill="#ffa824"/><path stroke-width=".0149" stroke-miterlimit="10" fill="none" stroke="#000" d="M111.773 144.725h13.172l6.586-11.407-6.586-11.409h-13.172l-6.587 11.409 6.587 11.407z"/><path d="m85.427 144.725 6.587-11.407h13.172l6.587 11.407-6.587 11.408H92.014" fill="#ffa824"/><path stroke-width=".0149" stroke-miterlimit="10" fill="none" stroke="#000" d="M92.014 156.133h13.172l6.587-11.408-6.587-11.407H92.014l-6.587 11.407 6.587 11.408z"/><path d="m85.427 167.541 6.587-11.408h13.172l6.587 11.408-6.587 11.407H92.014" fill="#ffa824"/><path stroke-width=".0149" stroke-miterlimit="10" fill="none" stroke="#000" d="M92.014 178.948h13.172l6.587-11.407-6.587-11.408H92.014l-6.587 11.408 6.587 11.407z"/><path d="m85.427 190.356 6.587-11.408h13.172l6.587 11.408-6.587 11.408H92.014" fill="#ffa824"/><path stroke-width=".0149" stroke-miterlimit="10" fill="none" stroke="#000" d="M92.014 201.764h13.172l6.587-11.408-6.587-11.408H92.014l-6.587 11.408 6.587 11.408z"/><path d="m85.427 213.172 6.587-11.408h13.172l6.587 11.408-6.587 11.408H92.014" fill="#ffa824"/><path stroke-width=".0149" stroke-miterlimit="10" fill="none" stroke="#000" d="M92.014 224.58h13.172l6.587-11.408-6.587-11.408H92.014l-6.587 11.408 6.587 11.408z"/><path d="m105.186 224.58 6.587-11.408h13.172l6.586 11.408-6.586 11.407h-13.172" fill="#ffa824"/><path stroke-width=".0149" stroke-miterlimit="10" fill="none" stroke="#000" d="M111.773 235.987h13.172l6.586-11.407-6.586-11.408h-13.172l-6.587 11.408 6.587 11.407z"/><path d="m124.945 235.987 6.586-11.407h13.173l6.586 11.407-6.586 11.408h-13.173" fill="#ffa824"/><path stroke-width=".0149" stroke-miterlimit="10" fill="none" stroke="#000" d="M131.531 247.395h13.173l6.586-11.408-6.586-11.407h-13.173l-6.586 11.407 6.586 11.408z"/><path d="m144.704 270.21 6.586-11.407h13.172l6.587 11.408-6.587 11.407H151.29" fill="#ffebcd"/><path stroke-width=".0149" stroke-miterlimit="10" fill="none" stroke="#000" d="M151.29 281.618h13.172l6.587-11.407-6.587-11.408H151.29l-6.586 11.408 6.586 11.407z"/><path d="m164.462 258.803 6.587-11.408h13.172l6.587 11.408-6.587 11.408h-13.172" fill="#ffebcd"/><path stroke-width=".0149" stroke-miterlimit="10" fill="none" stroke="#000" d="M171.049 270.21h13.172l6.587-11.407-6.587-11.408h-13.172l-6.587 11.408 6.587 11.408z"/><path d="m184.221 247.395 6.587-11.408h13.172l6.587 11.408-6.587 11.408h-13.172" fill="#ffebcd"/><path stroke-width=".0149" stroke-miterlimit="10" fill="none" stroke="#000" d="M190.808 258.803h13.172l6.587-11.408-6.587-11.408h-13.172l-6.587 11.408 6.587 11.408z"/><path d="m203.98 235.987 6.587-11.407h13.172l6.587 11.407-6.587 11.408h-13.172" fill="#ffebcd"/><path stroke-width=".0149" stroke-miterlimit="10" fill="none" stroke="#000" d="M210.567 247.395h13.172l6.587-11.408-6.587-11.407h-13.172l-6.587 11.407 6.587 11.408z"/><path d="m223.739 224.58 6.587-11.408h13.172l6.586 11.408-6.586 11.407h-13.172" fill="#ffebcd"/><path stroke-width=".0149" stroke-miterlimit="10" fill="none" stroke="#000" d="M230.326 235.987h13.172l6.586-11.407-6.586-11.408h-13.172l-6.587 11.408 6.587 11.407z"/><path d="m223.739 201.764 6.587-11.408h13.172l6.586 11.408-6.586 11.408h-13.172" fill="#ffebcd"/><path stroke-width=".0149" stroke-miterlimit="10" fill="none" stroke="#000" d="M230.326 213.172h13.172l6.586-11.408-6.586-11.408h-13.172l-6.587 11.408 6.587 11.408z"/><path d="m223.739 178.948 6.587-11.407h13.172l6.586 11.407-6.586 11.408h-13.172" fill="#ffebcd"/><path stroke-width=".0149" stroke-miterlimit="10" fill="none" stroke="#000" d="M230.326 190.356h13.172l6.586-11.408-6.586-11.407h-13.172l-6.587 11.407 6.587 11.408z"/><path d="m223.739 156.133 6.587-11.408h13.172l6.586 11.408-6.586 11.408h-13.172" fill="#ffebcd"/><path stroke-width=".0149" stroke-miterlimit="10" fill="none" stroke="#000" d="M230.326 167.541h13.172l6.586-11.408-6.586-11.408h-13.172l-6.587 11.408 6.587 11.408z"/><path d="m223.739 133.318 6.587-11.409h13.172l6.586 11.409-6.586 11.407h-13.172" fill="#ffebcd"/><path stroke-width=".0149" stroke-miterlimit="10" fill="none" stroke="#000" d="M230.326 144.725h13.172l6.586-11.407-6.586-11.409h-13.172l-6.587 11.409 6.587 11.407z"/><path d="m203.98 121.909 6.587-11.407h13.172l6.587 11.407-6.587 11.409h-13.172" fill="#ffebcd"/><path stroke-width=".0149" stroke-miterlimit="10" fill="none" stroke="#000" d="M210.567 133.318h13.172l6.587-11.409-6.587-11.407h-13.172l-6.587 11.407 6.587 11.409z"/><path d="m184.221 110.502 6.587-11.408h13.172l6.587 11.408-6.587 11.407h-13.172" fill="#ffebcd"/><path stroke-width=".0149" stroke-miterlimit="10" fill="none" stroke="#000" d="M190.808 121.909h13.172l6.587-11.407-6.587-11.408h-13.172l-6.587 11.408 6.587 11.407z"/><path d="m164.462 99.094 6.587-11.407h13.172l6.587 11.407-6.587 11.408h-13.172" fill="#ffebcd"/><path stroke-width=".0149" stroke-miterlimit="10" fill="none" stroke="#000" d="M171.049 110.502h13.172l6.587-11.408-6.587-11.407h-13.172l-6.587 11.407 6.587 11.408z"/><path d="m144.704 87.687 6.586-11.408h13.172l6.587 11.408-6.587 11.407H151.29" fill="#ffebcd"/><path stroke-width=".0149" stroke-miterlimit="10" fill="none" stroke="#000" d="M151.29 99.094h13.172l6.587-11.407-6.587-11.408H151.29l-6.586 11.408 6.586 11.407z"/><path d="m124.945 99.094 6.586-11.407h13.173l6.586 11.407-6.586 11.408h-13.173" fill="#ffebcd"/><path stroke-width=".0149" stroke-miterlimit="10" fill="none" stroke="#000" d="M131.531 110.502h13.173l6.586-11.408-6.586-11.407h-13.173l-6.586 11.407 6.586 11.408z"/><path d="m105.186 110.502 6.587-11.408h13.172l6.586 11.408-6.586 11.407h-13.172" fill="#ffebcd"/><path stroke-width=".0149" stroke-miterlimit="10" fill="none" stroke="#000" d="M111.773 121.909h13.172l6.586-11.407-6.586-11.408h-13.172l-6.587 11.408 6.587 11.407z"/><path d="m85.427 121.909 6.587-11.407h13.172l6.587 11.407-6.587 11.409H92.014" fill="#ffebcd"/><path stroke-width=".0149" stroke-miterlimit="10" fill="none" stroke="#000" d="M92.014 133.318h13.172l6.587-11.409-6.587-11.407H92.014l-6.587 11.407 6.587 11.409z"/><path d="m65.669 133.318 6.586-11.409h13.172l6.587 11.409-6.587 11.407H72.255" fill="#ffebcd"/><path stroke-width=".0149" stroke-miterlimit="10" fill="none" stroke="#000" d="M72.255 144.725h13.172l6.587-11.407-6.587-11.409H72.255l-6.586 11.409 6.586 11.407z"/><path d="m65.669 156.133 6.586-11.408h13.172l6.587 11.408-6.587 11.408H72.255" fill="#ffebcd"/><path stroke-width=".0149" stroke-miterlimit="10" fill="none" stroke="#000" d="M72.255 167.541h13.172l6.587-11.408-6.587-11.408H72.255l-6.586 11.408 6.586 11.408z"/><path d="m65.669 178.948 6.586-11.407h13.172l6.587 11.407-6.587 11.408H72.255" fill="#ffebcd"/><path stroke-width=".0149" stroke-miterlimit="10" fill="none" stroke="#000" d="M72.255 190.356h13.172l6.587-11.408-6.587-11.407H72.255l-6.586 11.407 6.586 11.408z"/><path d="m65.669 201.764 6.586-11.408h13.172l6.587 11.408-6.587 11.408H72.255" fill="#ffebcd"/><path stroke-width=".0149" stroke-miterlimit="10" fill="none" stroke="#000" d="M72.255 213.172h13.172l6.587-11.408-6.587-11.408H72.255l-6.586 11.408 6.586 11.408z"/><path d="m65.669 224.58 6.586-11.408h13.172l6.587 11.408-6.587 11.407H72.255" fill="#ffebcd"/><path stroke-width=".0149" stroke-miterlimit="10" fill="none" stroke="#000" d="M72.255 235.987h13.172l6.587-11.407-6.587-11.408H72.255l-6.586 11.408 6.586 11.407z"/><path d="m85.427 235.987 6.587-11.407h13.172l6.587 11.407-6.587 11.408H92.014" fill="#ffebcd"/><path stroke-width=".0149" stroke-miterlimit="10" fill="none" stroke="#000" d="M92.014 247.395h13.172l6.587-11.408-6.587-11.407H92.014l-6.587 11.407 6.587 11.408z"/><path d="m105.186 247.395 6.587-11.408h13.172l6.586 11.408-6.586 11.408h-13.172" fill="#ffebcd"/><path stroke-width=".0149" stroke-miterlimit="10" fill="none" stroke="#000" d="M111.773 258.803h13.172l6.586-11.408-6.586-11.408h-13.172l-6.587 11.408 6.587 11.408z"/><path d="m124.945 258.803 6.586-11.408h13.173l6.586 11.408-6.586 11.408h-13.173" fill="#ffebcd"/><path stroke-width=".0149" stroke-miterlimit="10" fill="none" stroke="#000" d="M131.531 270.21h13.173l6.586-11.407-6.586-11.408h-13.173l-6.586 11.408 6.586 11.408z"/><path d="m144.704 293.026 6.586-11.408h13.172l6.587 11.408-6.587 11.408H151.29"/><path stroke-width=".0149" stroke-miterlimit="10" fill="none" stroke="#000" d="M151.29 304.434h13.172l6.587-11.408-6.587-11.408H151.29l-6.586 11.408 6.586 11.408z"/><path d="m164.462 281.618 6.587-11.407h13.172l6.587 11.407-6.587 11.408h-13.172"/><path stroke-width=".0149" stroke-miterlimit="10" fill="none" stroke="#000" d="M171.049 293.026h13.172l6.587-11.408-6.587-11.407h-13.172l-6.587 11.407 6.587 11.408z"/><path d="m184.221 270.21 6.587-11.407h13.172l6.587 11.408-6.587 11.407h-13.172"/><path stroke-width=".0149" stroke-miterlimit="10" fill="none" stroke="#000" d="M190.808 281.618h13.172l6.587-11.407-6.587-11.408h-13.172l-6.587 11.408 6.587 11.407z"/><path d="m203.98 258.803 6.587-11.408h13.172l6.587 11.408-6.587 11.408h-13.172"/><path stroke-width=".0149" stroke-miterlimit="10" fill="none" stroke="#000" d="M210.567 270.21h13.172l6.587-11.407-6.587-11.408h-13.172l-6.587 11.408 6.587 11.408z"/><path d="m223.739 247.395 6.587-11.408h13.172l6.586 11.408-6.586 11.408h-13.172"/><path stroke-width=".0149" stroke-miterlimit="10" fill="none" stroke="#000" d="M230.326 258.803h13.172l6.586-11.408-6.586-11.408h-13.172l-6.587 11.408 6.587 11.408z"/><path d="m243.498 235.987 6.586-11.407h13.173l6.586 11.407-6.586 11.408h-13.173"/><path stroke-width=".0149" stroke-miterlimit="10" fill="none" stroke="#000" d="M250.084 247.395h13.173l6.586-11.408-6.586-11.407h-13.173l-6.586 11.407 6.586 11.408z"/><path d="m243.498 213.172 6.586-11.408h13.173l6.586 11.408-6.586 11.407h-13.173"/><path stroke-width=".0149" stroke-miterlimit="10" fill="none" stroke="#000" d="M250.084 224.579h13.173l6.586-11.407-6.586-11.408h-13.173l-6.586 11.408 6.586 11.407z"/><path d="m243.498 190.356 6.586-11.408h13.173l6.586 11.408-6.586 11.408h-13.173"/><path stroke-width=".0149" stroke-miterlimit="10" fill="none" stroke="#000" d="M250.084 201.764h13.173l6.586-11.408-6.586-11.408h-13.173l-6.586 11.408 6.586 11.408z"/><path d="m243.498 167.541 6.586-11.408h13.173l6.586 11.408-6.586 11.407h-13.173"/><path stroke-width=".0149" stroke-miterlimit="10" fill="none" stroke="#000" d="M250.084 178.948h13.173l6.586-11.407-6.586-11.408h-13.173l-6.586 11.408 6.586 11.407z"/><path d="m243.498 144.725 6.586-11.407h13.173l6.586 11.407-6.586 11.408h-13.173"/><path stroke-width=".0149" stroke-miterlimit="10" fill="none" stroke="#000" d="M250.084 156.133h13.173l6.586-11.408-6.586-11.407h-13.173l-6.586 11.407 6.586 11.408z"/><path d="m243.498 121.909 6.586-11.407h13.173l6.586 11.407-6.586 11.409h-13.173"/><path stroke-width=".0149" stroke-miterlimit="10" fill="none" stroke="#000" d="M250.084 133.318h13.173l6.586-11.409-6.586-11.407h-13.173l-6.586 11.407 6.586 11.409z"/><path d="m223.739 110.502 6.587-11.408h13.172l6.586 11.408-6.586 11.407h-13.172"/><path stroke-width=".0149" stroke-miterlimit="10" fill="none" stroke="#000" d="M230.326 121.909h13.172l6.586-11.407-6.586-11.408h-13.172l-6.587 11.408 6.587 11.407z"/><path d="m203.98 99.094 6.587-11.407h13.172l6.587 11.407-6.587 11.408h-13.172"/><path stroke-width=".0149" stroke-miterlimit="10" fill="none" stroke="#000" d="M210.567 110.502h13.172l6.587-11.408-6.587-11.407h-13.172l-6.587 11.407 6.587 11.408z"/><path d="m184.221 87.687 6.587-11.408h13.172l6.587 11.408-6.587 11.407h-13.172"/><path stroke-width=".0149" stroke-miterlimit="10" fill="none" stroke="#000" d="M190.808 99.094h13.172l6.587-11.407-6.587-11.408h-13.172l-6.587 11.408 6.587 11.407z"/><path d="m164.462 76.279 6.587-11.408h13.172l6.587 11.408-6.587 11.408h-13.172"/><path stroke-width=".0149" stroke-miterlimit="10" fill="none" stroke="#000" d="M171.049 87.687h13.172l6.587-11.408-6.587-11.408h-13.172l-6.587 11.408 6.587 11.408z"/><path d="m144.704 64.871 6.586-11.408h13.172l6.587 11.408-6.587 11.408H151.29"/><path stroke-width=".0149" stroke-miterlimit="10" fill="none" stroke="#000" d="M151.29 76.279h13.172l6.587-11.408-6.587-11.408H151.29l-6.586 11.408 6.586 11.408z"/><path d="m124.945 76.279 6.586-11.408h13.173l6.586 11.408-6.586 11.408h-13.173"/><path stroke-width=".0149" stroke-miterlimit="10" fill="none" stroke="#000" d="M131.531 87.687h13.173l6.586-11.408-6.586-11.408h-13.173l-6.586 11.408 6.586 11.408z"/><path d="m105.186 87.687 6.587-11.408h13.172l6.586 11.408-6.586 11.407h-13.172"/><path stroke-width=".0149" stroke-miterlimit="10" fill="none" stroke="#000" d="M111.773 99.094h13.172l6.586-11.407-6.586-11.408h-13.172l-6.587 11.408 6.587 11.407z"/><path d="m85.427 99.094 6.587-11.407h13.172l6.587 11.407-6.587 11.408H92.014"/><path stroke-width=".0149" stroke-miterlimit="10" fill="none" stroke="#000" d="M92.014 110.502h13.172l6.587-11.408-6.587-11.407H92.014l-6.587 11.407 6.587 11.408z"/><path d="m65.669 110.502 6.586-11.408h13.172l6.587 11.408-6.587 11.407H72.255"/><path stroke-width=".0149" stroke-miterlimit="10" fill="none" stroke="#000" d="M72.255 121.909h13.172l6.587-11.407-6.587-11.408H72.255l-6.586 11.408 6.586 11.407z"/><path d="m45.91 121.909 6.586-11.407h13.173l6.586 11.407-6.586 11.409H52.496"/><path stroke-width=".0149" stroke-miterlimit="10" fill="none" stroke="#000" d="M52.496 133.318h13.173l6.586-11.409-6.586-11.407H52.496l-6.586 11.407 6.586 11.409z"/><path d="m45.91 144.725 6.586-11.407h13.173l6.586 11.407-6.586 11.408H52.496"/><path stroke-width=".0149" stroke-miterlimit="10" fill="none" stroke="#000" d="M52.496 156.133h13.173l6.586-11.408-6.586-11.407H52.496l-6.586 11.407 6.586 11.408z"/><path d="m45.91 167.541 6.586-11.408h13.173l6.586 11.408-6.586 11.407H52.496"/><path stroke-width=".0149" stroke-miterlimit="10" fill="none" stroke="#000" d="M52.496 178.948h13.173l6.586-11.407-6.586-11.408H52.496l-6.586 11.408 6.586 11.407z"/><path d="m45.91 190.356 6.586-11.408h13.173l6.586 11.408-6.586 11.408H52.496"/><path stroke-width=".0149" stroke-miterlimit="10" fill="none" stroke="#000" d="M52.496 201.764h13.173l6.586-11.408-6.586-11.408H52.496l-6.586 11.408 6.586 11.408z"/><path d="m45.91 213.172 6.586-11.408h13.173l6.586 11.408-6.586 11.407H52.496"/><path stroke-width=".0149" stroke-miterlimit="10" fill="none" stroke="#000" d="M52.496 224.579h13.173l6.586-11.407-6.586-11.408H52.496l-6.586 11.408 6.586 11.407z"/><path d="m45.91 235.987 6.586-11.408h13.173l6.586 11.408-6.586 11.408H52.496"/><path stroke-width=".0149" stroke-miterlimit="10" fill="none" stroke="#000" d="M52.496 247.395h13.173l6.586-11.408-6.586-11.408H52.496l-6.586 11.408 6.586 11.408z"/><path d="m65.669 247.395 6.586-11.408h13.172l6.587 11.408-6.587 11.408H72.255"/><path stroke-width=".0149" stroke-miterlimit="10" fill="none" stroke="#000" d="M72.255 258.803h13.172l6.587-11.408-6.587-11.408H72.255l-6.586 11.408 6.586 11.408z"/><path d="m85.427 258.803 6.587-11.408h13.172l6.587 11.408-6.587 11.408H92.014"/><path stroke-width=".0149" stroke-miterlimit="10" fill="none" stroke="#000" d="M92.014 270.21h13.172l6.587-11.407-6.587-11.408H92.014l-6.587 11.408 6.587 11.408z"/><path d="m105.186 270.21 6.587-11.407h13.172l6.586 11.408-6.586 11.407h-13.172"/><path stroke-width=".0149" stroke-miterlimit="10" fill="none" stroke="#000" d="M111.773 281.618h13.172l6.586-11.407-6.586-11.408h-13.172l-6.587 11.408 6.587 11.407z"/><path d="m124.945 281.618 6.586-11.407h13.173l6.586 11.407-6.586 11.408h-13.173"/><path stroke-width=".0149" stroke-miterlimit="10" fill="none" stroke="#000" d="M131.531 293.026h13.173l6.586-11.408-6.586-11.407h-13.173l-6.586 11.407 6.586 11.408z"/><path d="m144.704 315.841 6.586-11.407h13.172l6.587 11.407-6.587 11.409H151.29" fill="#e3cf57"/><path stroke-width=".0149" stroke-miterlimit="10" fill="none" stroke="#000" d="M151.29 327.25h13.172l6.587-11.409-6.587-11.407H151.29l-6.586 11.407 6.586 11.409z"/><path d="m164.462 304.434 6.587-11.408h13.172l6.587 11.408-6.587 11.407h-13.172" fill="#e3cf57"/><path stroke-width=".0149" stroke-miterlimit="10" fill="none" stroke="#000" d="M171.049 315.841h13.172l6.587-11.407-6.587-11.408h-13.172l-6.587 11.408 6.587 11.407z"/><path d="m184.221 293.026 6.587-11.408h13.172l6.587 11.408-6.587 11.408h-13.172" fill="#e3cf57"/><path stroke-width=".0149" stroke-miterlimit="10" fill="none" stroke="#000" d="M190.808 304.434h13.172l6.587-11.408-6.587-11.408h-13.172l-6.587 11.408 6.587 11.408z"/><path d="m203.98 281.618 6.587-11.407h13.172l6.587 11.407-6.587 11.408h-13.172" fill="#e3cf57"/><path stroke-width=".0149" stroke-miterlimit="10" fill="none" stroke="#000" d="M210.567 293.026h13.172l6.587-11.408-6.587-11.407h-13.172l-6.587 11.407 6.587 11.408z"/><path d="m223.739 270.21 6.587-11.407h13.172l6.586 11.408-6.586 11.407h-13.172" fill="#e3cf57"/><path stroke-width=".0149" stroke-miterlimit="10" fill="none" stroke="#000" d="M230.326 281.618h13.172l6.586-11.407-6.586-11.408h-13.172l-6.587 11.408 6.587 11.407z"/><path d="m243.498 258.803 6.586-11.408h13.173l6.586 11.408-6.586 11.408h-13.173" fill="#e3cf57"/><path stroke-width=".0149" stroke-miterlimit="10" fill="none" stroke="#000" d="M250.084 270.21h13.173l6.586-11.407-6.586-11.408h-13.173l-6.586 11.408 6.586 11.408z"/><path d="m263.257 247.395 6.586-11.408h13.173l6.586 11.408-6.586 11.408h-13.173" fill="#e3cf57"/><path stroke-width=".0149" stroke-miterlimit="10" fill="none" stroke="#000" d="M269.843 258.803h13.173l6.586-11.408-6.586-11.408h-13.173l-6.586 11.408 6.586 11.408z"/><path d="m263.257 224.579 6.586-11.407h13.173l6.586 11.407-6.586 11.408h-13.173" fill="#e3cf57"/><path stroke-width=".0149" stroke-miterlimit="10" fill="none" stroke="#000" d="M269.843 235.987h13.173l6.586-11.408-6.586-11.407h-13.173l-6.586 11.407 6.586 11.408z"/><path d="m263.257 201.764 6.586-11.408h13.173l6.586 11.408-6.586 11.408h-13.173" fill="#e3cf57"/><path stroke-width=".0149" stroke-miterlimit="10" fill="none" stroke="#000" d="M269.843 213.172h13.173l6.586-11.408-6.586-11.408h-13.173l-6.586 11.408 6.586 11.408z"/><path d="m263.257 178.948 6.586-11.407h13.173l6.586 11.407-6.586 11.408h-13.173" fill="#e3cf57"/><path stroke-width=".0149" stroke-miterlimit="10" fill="none" stroke="#000" d="M269.843 190.356h13.173l6.586-11.408-6.586-11.407h-13.173l-6.586 11.407 6.586 11.408z"/><path d="m263.257 156.133 6.586-11.408h13.173l6.586 11.408-6.586 11.408h-13.173" fill="#e3cf57"/><path stroke-width=".0149" stroke-miterlimit="10" fill="none" stroke="#000" d="M269.843 167.541h13.173l6.586-11.408-6.586-11.408h-13.173l-6.586 11.408 6.586 11.408z"/><path d="m263.257 133.318 6.586-11.409h13.173l6.586 11.409-6.586 11.407h-13.173" fill="#e3cf57"/><path stroke-width=".0149" stroke-miterlimit="10" fill="none" stroke="#000" d="M269.843 144.725h13.173l6.586-11.407-6.586-11.409h-13.173l-6.586 11.409 6.586 11.407z"/><path d="m263.257 110.502 6.586-11.408h13.173l6.586 11.408-6.586 11.407h-13.173" fill="#e3cf57"/><path stroke-width=".0149" stroke-miterlimit="10" fill="none" stroke="#000" d="M269.843 121.909h13.173l6.586-11.407-6.586-11.408h-13.173l-6.586 11.408 6.586 11.407z"/><path d="m243.498 99.094 6.586-11.407h13.173l6.586 11.407-6.586 11.408h-13.173" fill="#e3cf57"/><path stroke-width=".0149" stroke-miterlimit="10" fill="none" stroke="#000" d="M250.084 110.502h13.173l6.586-11.408-6.586-11.407h-13.173l-6.586 11.407 6.586 11.408z"/><path d="m223.739 87.687 6.587-11.408h13.172l6.586 11.408-6.586 11.407h-13.172" fill="#e3cf57"/><path stroke-width=".0149" stroke-miterlimit="10" fill="none" stroke="#000" d="M230.326 99.094h13.172l6.586-11.407-6.586-11.408h-13.172l-6.587 11.408 6.587 11.407z"/><path d="m203.98 76.279 6.587-11.408h13.172l6.587 11.408-6.587 11.408h-13.172" fill="#e3cf57"/><path stroke-width=".0149" stroke-miterlimit="10" fill="none" stroke="#000" d="M210.567 87.687h13.172l6.587-11.408-6.587-11.408h-13.172l-6.587 11.408 6.587 11.408z"/><path d="m184.221 64.871 6.587-11.408h13.172l6.587 11.408-6.587 11.408h-13.172" fill="#e3cf57"/><path stroke-width=".0149" stroke-miterlimit="10" fill="none" stroke="#000" d="M190.808 76.279h13.172l6.587-11.408-6.587-11.408h-13.172l-6.587 11.408 6.587 11.408z"/><path d="m164.462 53.463 6.587-11.408h13.172l6.587 11.408-6.587 11.408h-13.172" fill="#e3cf57"/><path stroke-width=".0149" stroke-miterlimit="10" fill="none" stroke="#000" d="M171.049 64.871h13.172l6.587-11.408-6.587-11.408h-13.172l-6.587 11.408 6.587 11.408z"/><path d="m144.704 42.055 6.586-11.407h13.172l6.587 11.407-6.587 11.408H151.29" fill="#e3cf57"/><path stroke-width=".0149" stroke-miterlimit="10" fill="none" stroke="#000" d="M151.29 53.463h13.172l6.587-11.408-6.587-11.407H151.29l-6.586 11.407 6.586 11.408z"/><path d="m124.945 53.463 6.586-11.408h13.173l6.586 11.408-6.586 11.408h-13.173" fill="#e3cf57"/><path stroke-width=".0149" stroke-miterlimit="10" fill="none" stroke="#000" d="M131.531 64.871h13.173l6.586-11.408-6.586-11.408h-13.173l-6.586 11.408 6.586 11.408z"/><path d="m105.186 64.871 6.587-11.408h13.172l6.586 11.408-6.586 11.408h-13.172" fill="#e3cf57"/><path stroke-width=".0149" stroke-miterlimit="10" fill="none" stroke="#000" d="M111.773 76.279h13.172l6.586-11.408-6.586-11.408h-13.172l-6.587 11.408 6.587 11.408z"/><path d="m85.427 76.279 6.587-11.408h13.172l6.587 11.408-6.587 11.408H92.014" fill="#e3cf57"/><path stroke-width=".0149" stroke-miterlimit="10" fill="none" stroke="#000" d="M92.014 87.687h13.172l6.587-11.408-6.587-11.408H92.014l-6.587 11.408 6.587 11.408z"/><path d="m65.669 87.687 6.586-11.408h13.172l6.587 11.408-6.587 11.407H72.255" fill="#e3cf57"/><path stroke-width=".0149" stroke-miterlimit="10" fill="none" stroke="#000" d="M72.255 99.094h13.172l6.587-11.407-6.587-11.408H72.255l-6.586 11.408 6.586 11.407z"/><path d="m45.91 99.094 6.586-11.407h13.173l6.586 11.407-6.586 11.408H52.496" fill="#e3cf57"/><path stroke-width=".0149" stroke-miterlimit="10" fill="none" stroke="#000" d="M52.496 110.502h13.173l6.586-11.408-6.586-11.407H52.496L45.91 99.094l6.586 11.408z"/><path d="m26.151 110.502 6.586-11.408H45.91l6.586 11.408-6.586 11.407H32.737" fill="#e3cf57"/><path stroke-width=".0149" stroke-miterlimit="10" fill="none" stroke="#000" d="M32.737 121.909H45.91l6.586-11.407-6.586-11.408H32.737l-6.586 11.408 6.586 11.407z"/><path d="m26.151 133.318 6.586-11.409H45.91l6.586 11.409-6.586 11.407H32.737" fill="#e3cf57"/><path stroke-width=".0149" stroke-miterlimit="10" fill="none" stroke="#000" d="M32.737 144.725H45.91l6.586-11.407-6.586-11.409H32.737l-6.586 11.409 6.586 11.407z"/><path d="m26.151 156.133 6.586-11.408H45.91l6.586 11.408-6.586 11.408H32.737" fill="#e3cf57"/><path stroke-width=".0149" stroke-miterlimit="10" fill="none" stroke="#000" d="M32.737 167.541H45.91l6.586-11.408-6.586-11.408H32.737l-6.586 11.408 6.586 11.408z"/><path d="m26.151 178.948 6.586-11.407H45.91l6.586 11.407-6.586 11.408H32.737" fill="#e3cf57"/><path stroke-width=".0149" stroke-miterlimit="10" fill="none" stroke="#000" d="M32.737 190.356H45.91l6.586-11.408-6.586-11.407H32.737l-6.586 11.407 6.586 11.408z"/><path d="m26.151 201.764 6.586-11.408H45.91l6.586 11.408-6.586 11.408H32.737" fill="#e3cf57"/><path stroke-width=".0149" stroke-miterlimit="10" fill="none" stroke="#000" d="M32.737 213.172H45.91l6.586-11.408-6.586-11.408H32.737l-6.586 11.408 6.586 11.408z"/><path d="m26.151 224.579 6.586-11.407H45.91l6.586 11.407-6.586 11.408H32.737" fill="#e3cf57"/><path stroke-width=".0149" stroke-miterlimit="10" fill="none" stroke="#000" d="M32.737 235.987H45.91l6.586-11.408-6.586-11.407H32.737l-6.586 11.407 6.586 11.408z"/><path d="m26.151 247.395 6.586-11.408H45.91l6.586 11.408-6.586 11.408H32.737" fill="#e3cf57"/><path stroke-width=".0149" stroke-miterlimit="10" fill="none" stroke="#000" d="M32.737 258.803H45.91l6.586-11.408-6.586-11.408H32.737l-6.586 11.408 6.586 11.408z"/><path d="m45.91 258.803 6.586-11.408h13.173l6.586 11.408-6.586 11.408H52.496" fill="#e3cf57"/><path stroke-width=".0149" stroke-miterlimit="10" fill="none" stroke="#000" d="M52.496 270.21h13.173l6.586-11.407-6.586-11.408H52.496l-6.586 11.408 6.586 11.408z"/><path d="m65.669 270.21 6.586-11.407h13.172l6.587 11.408-6.587 11.407H72.255" fill="#e3cf57"/><path stroke-width=".0149" stroke-miterlimit="10" fill="none" stroke="#000" d="M72.255 281.618h13.172l6.587-11.407-6.587-11.408H72.255l-6.586 11.408 6.586 11.407z"/><path d="m85.427 281.618 6.587-11.407h13.172l6.587 11.407-6.587 11.408H92.014" fill="#e3cf57"/><path stroke-width=".0149" stroke-miterlimit="10" fill="none" stroke="#000" d="M92.014 293.026h13.172l6.587-11.408-6.587-11.407H92.014l-6.587 11.407 6.587 11.408z"/><path d="m105.186 293.026 6.587-11.408h13.172l6.586 11.408-6.586 11.408h-13.172" fill="#e3cf57"/><path stroke-width=".0149" stroke-miterlimit="10" fill="none" stroke="#000" d="M111.773 304.434h13.172l6.586-11.408-6.586-11.408h-13.172l-6.587 11.408 6.587 11.408z"/><path d="m124.945 304.434 6.586-11.408h13.173l6.586 11.408-6.586 11.407h-13.173" fill="#e3cf57"/><path stroke-width=".0149" stroke-miterlimit="10" fill="none" stroke="#000" d="M131.531 315.841h13.173l6.586-11.407-6.586-11.408h-13.173l-6.586 11.408 6.586 11.407z"/><path d="m144.704 338.657 6.586-11.407h13.172l6.587 11.407-6.587 11.408H151.29" fill="#a39480"/><path stroke-width=".0149" stroke-miterlimit="10" fill="none" stroke="#000" d="M151.29 350.065h13.172l6.587-11.408-6.587-11.407H151.29l-6.586 11.407 6.586 11.408z"/><path d="m164.462 327.25 6.587-11.409h13.172l6.587 11.409-6.587 11.407h-13.172" fill="#a39480"/><path stroke-width=".0149" stroke-miterlimit="10" fill="none" stroke="#000" d="M171.049 338.657h13.172l6.587-11.407-6.587-11.409h-13.172l-6.587 11.409 6.587 11.407z"/><path d="m184.221 315.841 6.587-11.407h13.172l6.587 11.407-6.587 11.409h-13.172" fill="#a39480"/><path stroke-width=".0149" stroke-miterlimit="10" fill="none" stroke="#000" d="M190.808 327.25h13.172l6.587-11.409-6.587-11.407h-13.172l-6.587 11.407 6.587 11.409z"/><path d="m203.98 304.434 6.587-11.408h13.172l6.587 11.408-6.587 11.407h-13.172" fill="#a39480"/><path stroke-width=".0149" stroke-miterlimit="10" fill="none" stroke="#000" d="M210.567 315.841h13.172l6.587-11.407-6.587-11.408h-13.172l-6.587 11.408 6.587 11.407z"/><path d="m223.739 293.026 6.587-11.408h13.172l6.586 11.408-6.586 11.408h-13.172" fill="#a39480"/><path stroke-width=".0149" stroke-miterlimit="10" fill="none" stroke="#000" d="M230.326 304.434h13.172l6.586-11.408-6.586-11.408h-13.172l-6.587 11.408 6.587 11.408z"/><path d="m243.498 281.618 6.586-11.407h13.173l6.586 11.407-6.586 11.408h-13.173" fill="#a39480"/><path stroke-width=".0149" stroke-miterlimit="10" fill="none" stroke="#000" d="M250.084 293.026h13.173l6.586-11.408-6.586-11.407h-13.173l-6.586 11.407 6.586 11.408z"/><path d="m263.257 270.21 6.586-11.407h13.173l6.586 11.408-6.586 11.407h-13.173" fill="#a39480"/><path stroke-width=".0149" stroke-miterlimit="10" fill="none" stroke="#000" d="M269.843 281.618h13.173l6.586-11.407-6.586-11.408h-13.173l-6.586 11.408 6.586 11.407z"/><path d="m283.016 258.803 6.586-11.408h13.173l6.586 11.408-6.586 11.408h-13.173" fill="#a39480"/><path stroke-width=".0149" stroke-miterlimit="10" fill="none" stroke="#000" d="M289.602 270.21h13.173l6.586-11.407-6.586-11.408h-13.173l-6.586 11.408 6.586 11.408z"/><path d="m283.016 235.987 6.586-11.408h13.173l6.586 11.408-6.586 11.408h-13.173" fill="#a39480"/><path stroke-width=".0149" stroke-miterlimit="10" fill="none" stroke="#000" d="M289.602 247.395h13.173l6.586-11.408-6.586-11.408h-13.173l-6.586 11.408 6.586 11.408z"/><path d="m283.016 213.172 6.586-11.408h13.173l6.586 11.408-6.586 11.407h-13.173" fill="#a39480"/><path stroke-width=".0149" stroke-miterlimit="10" fill="none" stroke="#000" d="M289.602 224.579h13.173l6.586-11.407-6.586-11.408h-13.173l-6.586 11.408 6.586 11.407z"/><path d="m283.016 190.356 6.586-11.408h13.173l6.586 11.408-6.586 11.408h-13.173" fill="#a39480"/><path stroke-width=".0149" stroke-miterlimit="10" fill="none" stroke="#000" d="M289.602 201.764h13.173l6.586-11.408-6.586-11.408h-13.173l-6.586 11.408 6.586 11.408z"/><path d="m283.016 167.541 6.586-11.408h13.173l6.586 11.408-6.586 11.407h-13.173" fill="#a39480"/><path stroke-width=".0149" stroke-miterlimit="10" fill="none" stroke="#000" d="M289.602 178.948h13.173l6.586-11.407-6.586-11.408h-13.173l-6.586 11.408 6.586 11.407z"/><path d="m283.016 144.725 6.586-11.407h13.173l6.586 11.407-6.586 11.408h-13.173" fill="#a39480"/><path stroke-width=".0149" stroke-miterlimit="10" fill="none" stroke="#000" d="M289.602 156.133h13.173l6.586-11.408-6.586-11.407h-13.173l-6.586 11.407 6.586 11.408z"/><path d="m283.016 121.909 6.586-11.407h13.173l6.586 11.407-6.586 11.409h-13.173" fill="#a39480"/><path stroke-width=".0149" stroke-miterlimit="10" fill="none" stroke="#000" d="M289.602 133.318h13.173l6.586-11.409-6.586-11.407h-13.173l-6.586 11.407 6.586 11.409z"/><path d="m283.016 99.094 6.586-11.407h13.173l6.586 11.407-6.586 11.408h-13.173" fill="#a39480"/><path stroke-width=".0149" stroke-miterlimit="10" fill="none" stroke="#000" d="M289.602 110.502h13.173l6.586-11.408-6.586-11.407h-13.173l-6.586 11.407 6.586 11.408z"/><path d="m263.257 87.687 6.586-11.408h13.173l6.586 11.408-6.586 11.407h-13.173" fill="#a39480"/><path stroke-width=".0149" stroke-miterlimit="10" fill="none" stroke="#000" d="M269.843 99.094h13.173l6.586-11.407-6.586-11.408h-13.173l-6.586 11.408 6.586 11.407z"/><path d="m243.498 76.279 6.586-11.408h13.173l6.586 11.408-6.586 11.408h-13.173" fill="#a39480"/><path stroke-width=".0149" stroke-miterlimit="10" fill="none" stroke="#000" d="M250.084 87.687h13.173l6.586-11.408-6.586-11.408h-13.173l-6.586 11.408 6.586 11.408z"/><path d="m223.739 64.871 6.587-11.408h13.172l6.586 11.408-6.586 11.408h-13.172" fill="#a39480"/><path stroke-width=".0149" stroke-miterlimit="10" fill="none" stroke="#000" d="M230.326 76.279h13.172l6.586-11.408-6.586-11.408h-13.172l-6.587 11.408 6.587 11.408z"/><path d="m203.98 53.463 6.587-11.408h13.172l6.587 11.408-6.587 11.408h-13.172" fill="#a39480"/><path stroke-width=".0149" stroke-miterlimit="10" fill="none" stroke="#000" d="M210.567 64.871h13.172l6.587-11.408-6.587-11.408h-13.172l-6.587 11.408 6.587 11.408z"/><path d="m184.221 42.055 6.587-11.407h13.172l6.587 11.407-6.587 11.408h-13.172" fill="#a39480"/><path stroke-width=".0149" stroke-miterlimit="10" fill="none" stroke="#000" d="M190.808 53.463h13.172l6.587-11.408-6.587-11.407h-13.172l-6.587 11.407 6.587 11.408z"/><path d="m164.462 30.648 6.587-11.408h13.172l6.587 11.408-6.587 11.407h-13.172" fill="#a39480"/><path stroke-width=".0149" stroke-miterlimit="10" fill="none" stroke="#000" d="M171.049 42.055h13.172l6.587-11.407-6.587-11.408h-13.172l-6.587 11.408 6.587 11.407z"/><path d="m144.704 19.24 6.586-11.408h13.172l6.587 11.408-6.587 11.408H151.29" fill="#a39480"/><path stroke-width=".0149" stroke-miterlimit="10" fill="none" stroke="#000" d="M151.29 30.648h13.172l6.587-11.408-6.587-11.408H151.29l-6.586 11.408 6.586 11.408z"/><path d="m124.945 30.648 6.586-11.408h13.173l6.586 11.408-6.586 11.407h-13.173" fill="#a39480"/><path stroke-width=".0149" stroke-miterlimit="10" fill="none" stroke="#000" d="M131.531 42.055h13.173l6.586-11.407-6.586-11.408h-13.173l-6.586 11.408 6.586 11.407z"/><path d="m105.186 42.055 6.587-11.407h13.172l6.586 11.407-6.586 11.408h-13.172" fill="#a39480"/><path stroke-width=".0149" stroke-miterlimit="10" fill="none" stroke="#000" d="M111.773 53.463h13.172l6.586-11.408-6.586-11.407h-13.172l-6.587 11.407 6.587 11.408z"/><path d="m85.427 53.463 6.587-11.408h13.172l6.587 11.408-6.587 11.408H92.014" fill="#a39480"/><path stroke-width=".0149" stroke-miterlimit="10" fill="none" stroke="#000" d="M92.014 64.871h13.172l6.587-11.408-6.587-11.408H92.014l-6.587 11.408 6.587 11.408z"/><path d="m65.669 64.871 6.586-11.408h13.172l6.587 11.408-6.587 11.408H72.255" fill="#a39480"/><path stroke-width=".0149" stroke-miterlimit="10" fill="none" stroke="#000" d="M72.255 76.279h13.172l6.587-11.408-6.587-11.408H72.255l-6.586 11.408 6.586 11.408z"/><path d="m45.91 76.279 6.586-11.408h13.173l6.586 11.408-6.586 11.408H52.496" fill="#a39480"/><path stroke-width=".0149" stroke-miterlimit="10" fill="none" stroke="#000" d="M52.496 87.687h13.173l6.586-11.408-6.586-11.408H52.496L45.91 76.279l6.586 11.408z"/><path d="m26.151 87.687 6.586-11.408H45.91l6.586 11.408-6.586 11.407H32.737" fill="#a39480"/><path stroke-width=".0149" stroke-miterlimit="10" fill="none" stroke="#000" d="M32.737 99.094H45.91l6.586-11.407-6.586-11.408H32.737l-6.586 11.408 6.586 11.407z"/><path d="m6.392 99.094 6.587-11.407H26.15l6.586 11.407-6.586 11.408H12.98" fill="#a39480"/><path stroke-width=".0149" stroke-miterlimit="10" fill="none" stroke="#000" d="M12.979 110.502H26.15l6.586-11.408-6.586-11.407H12.98L6.392 99.094l6.587 11.408z"/><path d="m6.392 121.909 6.587-11.407H26.15l6.586 11.407-6.586 11.409H12.98" fill="#a39480"/><path stroke-width=".0149" stroke-miterlimit="10" fill="none" stroke="#000" d="M12.979 133.318H26.15l6.586-11.409-6.586-11.407H12.98l-6.587 11.407 6.587 11.409z"/><path d="m6.392 144.725 6.587-11.407H26.15l6.586 11.407-6.586 11.408H12.98" fill="#a39480"/><path stroke-width=".0149" stroke-miterlimit="10" fill="none" stroke="#000" d="M12.979 156.133H26.15l6.586-11.408-6.586-11.407H12.98l-6.587 11.407 6.587 11.408z"/><path d="m6.392 167.541 6.587-11.408H26.15l6.586 11.408-6.586 11.407H12.98" fill="#a39480"/><path stroke-width=".0149" stroke-miterlimit="10" fill="none" stroke="#000" d="M12.979 178.948H26.15l6.586-11.407-6.586-11.408H12.98l-6.587 11.408 6.587 11.407z"/><path d="m6.392 190.356 6.587-11.408H26.15l6.586 11.408-6.586 11.408H12.98" fill="#a39480"/><path stroke-width=".0149" stroke-miterlimit="10" fill="none" stroke="#000" d="M12.979 201.764H26.15l6.586-11.408-6.586-11.408H12.98l-6.587 11.408 6.587 11.408z"/><path d="m6.392 213.172 6.587-11.408H26.15l6.586 11.408-6.586 11.407H12.98" fill="#a39480"/><path stroke-width=".0149" stroke-miterlimit="10" fill="none" stroke="#000" d="M12.979 224.579H26.15l6.586-11.407-6.586-11.408H12.98l-6.587 11.408 6.587 11.407z"/><path d="m6.392 235.987 6.587-11.408H26.15l6.586 11.408-6.586 11.408H12.98" fill="#a39480"/><path stroke-width=".0149" stroke-miterlimit="10" fill="none" stroke="#000" d="M12.979 247.395H26.15l6.586-11.408-6.586-11.408H12.98l-6.587 11.408 6.587 11.408z"/><path d="m6.392 258.803 6.587-11.408H26.15l6.586 11.408-6.586 11.408H12.98" fill="#a39480"/><path stroke-width=".0149" stroke-miterlimit="10" fill="none" stroke="#000" d="M12.979 270.21H26.15l6.586-11.407-6.586-11.408H12.98l-6.587 11.408 6.587 11.408z"/><path d="m26.151 270.21 6.586-11.407H45.91l6.586 11.408-6.586 11.407H32.737" fill="#a39480"/><path stroke-width=".0149" stroke-miterlimit="10" fill="none" stroke="#000" d="M32.737 281.618H45.91l6.586-11.407-6.586-11.408H32.737l-6.586 11.408 6.586 11.407z"/><path d="m45.91 281.618 6.586-11.407h13.173l6.586 11.407-6.586 11.408H52.496" fill="#a39480"/><path stroke-width=".0149" stroke-miterlimit="10" fill="none" stroke="#000" d="M52.496 293.026h13.173l6.586-11.408-6.586-11.407H52.496l-6.586 11.407 6.586 11.408z"/><path d="m65.669 293.026 6.586-11.408h13.172l6.587 11.408-6.587 11.408H72.255" fill="#a39480"/><path stroke-width=".0149" stroke-miterlimit="10" fill="none" stroke="#000" d="M72.255 304.434h13.172l6.587-11.408-6.587-11.408H72.255l-6.586 11.408 6.586 11.408z"/><path d="m85.427 304.434 6.587-11.408h13.172l6.587 11.408-6.587 11.407H92.014" fill="#a39480"/><path stroke-width=".0149" stroke-miterlimit="10" fill="none" stroke="#000" d="M92.014 315.841h13.172l6.587-11.407-6.587-11.408H92.014l-6.587 11.408 6.587 11.407z"/><path d="m105.186 315.841 6.587-11.407h13.172l6.586 11.407-6.586 11.409h-13.172" fill="#a39480"/><path stroke-width=".0149" stroke-miterlimit="10" fill="none" stroke="#000" d="M111.773 327.25h13.172l6.586-11.409-6.586-11.407h-13.172l-6.587 11.407 6.587 11.409z"/><path d="m124.945 327.25 6.586-11.409h13.173l6.586 11.409-6.586 11.407h-13.173" fill="#a39480"/><path stroke-width=".0149" stroke-miterlimit="10" fill="none" stroke="#000" d="M131.531 338.657h13.173l6.586-11.407-6.586-11.409h-13.173l-6.586 11.409 6.586 11.407z"/></g></svg>