<svg xmlns="http://www.w3.org/2000/svg" xmlns:xlink="http://www.w3.org/1999/xlink" width="158.181" height="236.877" viewBox="0 0 118.636 177.658"><path stroke-width=".199" stroke-miterlimit="10" fill="none" stroke="#929292" d="m48.876 118.34 69.661 24.389M48.876 118.34.1 153.17M48.876 118.34l69.661 24.389M60.487 122.405l-48.778 34.83M48.876 118.34l69.661 24.389M72.097 126.47 23.319 161.3M48.876 118.34l69.661 24.389M83.707 130.534 34.93 165.365M48.876 118.34l69.661 24.389M95.317 134.6 46.54 169.43M48.876 118.34l69.661 24.389M106.927 138.664l-48.777 34.83M48.876 118.34l69.661 24.389M118.537 142.729l-48.777 34.83M40.747 124.145l69.66 24.389M48.876 118.34.1 153.17M40.747 124.145l69.66 24.389M60.487 122.405l-48.778 34.83M40.747 124.145l69.66 24.389M72.097 126.47 23.319 161.3M40.747 124.145l69.66 24.389M83.707 130.534 34.93 165.365M40.747 124.145l69.66 24.389M95.317 134.6 46.54 169.43M40.747 124.145l69.66 24.389M106.927 138.664l-48.777 34.83M40.747 124.145l69.66 24.389M118.537 142.729l-48.777 34.83M32.617 129.95l69.661 24.389M48.876 118.34.1 153.17M32.617 129.95l69.661 24.389M60.487 122.405l-48.778 34.83M32.617 129.95l69.661 24.389M72.097 126.47 23.319 161.3M32.617 129.95l69.661 24.389M83.707 130.534 34.93 165.365M32.617 129.95l69.661 24.389M95.317 134.6 46.54 169.43M32.617 129.95l69.661 24.389M106.927 138.664l-48.777 34.83M32.617 129.95l69.661 24.389M118.537 142.729l-48.777 34.83M24.488 135.755l69.66 24.389M48.876 118.34.1 153.17M24.488 135.755l69.66 24.389M60.487 122.405l-48.778 34.83M24.488 135.755l69.66 24.389M72.097 126.47 23.319 161.3M24.488 135.755l69.66 24.389M83.707 130.534 34.93 165.365M24.488 135.755l69.66 24.389M95.317 134.6 46.54 169.43M24.488 135.755l69.66 24.389M106.927 138.664l-48.777 34.83M24.488 135.755l69.66 24.389M118.537 142.729l-48.777 34.83M16.358 141.56l69.661 24.39M48.876 118.34.1 153.17M16.358 141.56l69.661 24.39M60.487 122.405l-48.778 34.83M16.358 141.56l69.661 24.39M72.097 126.47 23.319 161.3M16.358 141.56l69.661 24.39M83.707 130.534 34.93 165.365M16.358 141.56l69.661 24.39M95.317 134.6 46.54 169.43M16.358 141.56l69.661 24.39M106.927 138.664l-48.777 34.83M16.358 141.56l69.661 24.39M118.537 142.729l-48.777 34.83M8.229 147.366l69.66 24.388M48.876 118.34.1 153.17M8.229 147.366l69.66 24.388M60.487 122.405l-48.778 34.83M8.229 147.366l69.66 24.388M72.097 126.47 23.319 161.3M8.229 147.366l69.66 24.388M83.707 130.534 34.93 165.365M8.229 147.366l69.66 24.388M95.317 134.6 46.54 169.43M8.229 147.366l69.66 24.388M106.927 138.664l-48.777 34.83M8.229 147.366l69.66 24.388M118.537 142.729l-48.777 34.83M.1 153.17l69.66 24.39M48.876 118.34.1 153.17M.1 153.17l69.66 24.39M60.487 122.405l-48.778 34.83M.1 153.17l69.66 24.39M72.097 126.47 23.319 161.3M.1 153.17l69.66 24.39M83.707 130.534 34.93 165.365M.1 153.17l69.66 24.39M95.317 134.6 46.54 169.43M.1 153.17l69.66 24.39M106.927 138.664l-48.777 34.83M.1 153.17l69.66 24.39M118.537 142.729l-48.777 34.83"/><path stroke-width=".797" stroke-miterlimit="10" fill="none" stroke="#000" d="M52.357 128.21V6.172"/><path stroke-width=".638" stroke-linecap="round" stroke-linejoin="round" fill="none" stroke="#000" d="M50.285 7.726c.777-.13 1.943-1.554 2.072-1.943.13.389 1.295 1.813 2.072 1.943"/><symbol id="a"><path d="M.09.094c.054.058.083.083.119.114 0 .001.062.054.098.09a.474.474 0 0 1 .117.145c0 .01-.009.01-.011.01C.406.453.403.451.398.442.368.394.347.378.323.378S.287.393.272.41C.253.433.236.453.203.453.128.453.082.36.082.339c0-.005.003-.011.012-.011.009 0 .011.005.013.011.019.046.077.047.085.047.021 0 .04-.007.063-.015C.295.356.306.356.332.356A1.501 1.501 0 0 0 .193.225L.103.141A.479.479 0 0 1 0 .01C0 0 .01 0 .012 0c.008 0 .01.002.016.013.023.035.053.062.085.062.023 0 .033-.009.058-.038C.188.016.206 0 .235 0c.099 0 .157.127.157.154 0 .005-.004.01-.012.01C.371.164.369.158.366.151a.13.13 0 0 0-.12-.084C.226.067.208.073.187.08a.178.178 0 0 1-.07.017C.115.097.099.097.09.094z"/></symbol><use xlink:href="#a" transform="matrix(9.9626 0 0 -9.9626 56.504 7.72)"/><path stroke-width=".797" stroke-miterlimit="10" fill="none" stroke="#000" stroke-opacity=".5" d="m52.357 128.21 46.44 16.26-32.517 23.22-46.441-16.26z"/><path stroke-width=".797" stroke-miterlimit="10" fill="none" stroke="#000" stroke-opacity=".5" d="m52.357 128.21 46.44 16.26V46.272l-46.44-16.26zM52.357 128.21l-32.518 23.22V53.234l32.518-23.22z"/><path d="m19.839 151.43 46.44 16.26V69.492l-46.44-16.26z" fill="#623f99" fill-opacity=".9"/><path stroke-width=".797" stroke-miterlimit="10" fill="none" stroke="#000" stroke-opacity=".9" d="m19.839 151.43 46.44 16.26V69.492l-46.44-16.26z"/><path d="M98.798 144.47 66.28 167.69V69.492l32.518-23.22z" fill="#937dba" fill-opacity=".9"/><path stroke-width=".797" stroke-miterlimit="10" fill="none" stroke="#000" stroke-opacity=".9" d="M98.798 144.47 66.28 167.69V69.492l32.518-23.22z"/><path d="m52.357 30.014 46.44 16.259-32.517 23.22-46.441-16.26z" fill="#b1a1ce" fill-opacity=".9"/><path stroke-width=".797" stroke-miterlimit="10" fill="none" stroke="#000" stroke-opacity=".9" d="m52.357 30.014 46.44 16.259-32.517 23.22-46.441-16.26z"/><path d="m52.357 79.112 46.44 16.259-32.517 23.22-46.441-16.259z" fill="#8b368c" fill-opacity=".2"/><path stroke-width=".797" stroke-miterlimit="10" fill="none" stroke="#000" stroke-opacity=".2" d="m52.357 79.112 46.44 16.259-32.517 23.22-46.441-16.259z"/><path stroke-width=".797" stroke-miterlimit="10" fill="none" stroke="#000" stroke-opacity=".9" d="m66.28 118.591 32.518-23.22M19.839 102.332l46.44 16.26"/><path d="M47.937 57.88c8.977 3.143 21.35 2.052 27.635-2.436 6.286-4.489 4.105-10.675-4.872-13.818-8.977-3.143-21.35-2.052-27.636 2.437-6.286 4.488-4.104 10.674 4.873 13.817" fill="#8dc63f" fill-opacity=".9"/><path stroke-width=".797" stroke-miterlimit="10" fill="none" stroke="#000" stroke-opacity=".9" d="M47.937 57.88c8.977 3.143 21.35 2.052 27.635-2.436 6.286-4.489 4.105-10.675-4.872-13.818-8.977-3.143-21.35-2.052-27.636 2.437-6.286 4.488-4.104 10.674 4.873 13.817"/><path stroke-width=".797" stroke-miterlimit="10" fill="none" stroke="#000" stroke-opacity=".4" d="M47.937 156.077c8.977 3.143 21.35 2.052 27.635-2.437 6.286-4.488 4.105-10.674-4.872-13.817-8.977-3.143-21.35-2.052-27.636 2.436-6.286 4.489-4.104 10.675 4.873 13.818M39.792 149.661V51.465M78.837 146.219V48.022"/><path d="M51.189 55.558c6.412 2.245 15.25 1.466 19.74-1.74 4.49-3.206 2.931-7.625-3.481-9.87-6.412-2.245-15.25-1.466-19.74 1.74-4.49 3.207-2.931 7.625 3.48 9.87" fill="#3c7f32" fill-opacity=".9"/><path stroke-width=".797" stroke-miterlimit="10" fill="none" stroke="#000" stroke-opacity=".9" d="M51.189 55.558c6.412 2.245 15.25 1.466 19.74-1.74 4.49-3.206 2.931-7.625-3.481-9.87-6.412-2.245-15.25-1.466-19.74 1.74-4.49 3.207-2.931 7.625 3.48 9.87"/><path stroke-width=".797" stroke-miterlimit="10" fill="none" stroke="#000" stroke-opacity=".4" d="M51.189 153.755c6.412 2.245 15.25 1.466 19.74-1.74 4.49-3.207 2.931-7.625-3.481-9.87-6.412-2.245-15.25-1.466-19.74 1.74-4.49 3.206-2.931 7.625 3.48 9.87M45.312 149.154V50.957M73.303 146.686V48.49M59.318 147.95V49.753"/><path stroke-width=".797" stroke-miterlimit="10" fill="none" stroke="#000" stroke-opacity=".9" d="M59.318 49.753 43.06 61.363M43.06 61.363v98.197"/><path stroke-width=".797" stroke-miterlimit="10" fill="none" stroke="#000" stroke-opacity=".4" d="m43.06 159.56 16.258-11.61"/><path stroke-width=".797" stroke-miterlimit="10" fill="none" stroke="#000" stroke-opacity=".9" d="m59.318 49.753 13.985-1.263"/><path stroke-width=".797" stroke-miterlimit="10" fill="none" stroke="#000" stroke-opacity=".4" d="m59.318 147.95 13.985-1.264"/><path stroke-width=".797" stroke-miterlimit="10" fill="none" stroke="#000" stroke-opacity=".9" d="m45.312 50.957-5.52.508"/><path stroke-width=".797" stroke-miterlimit="10" fill="none" stroke="#000" stroke-opacity=".4" d="m45.312 149.154-5.52.507"/><path stroke-width=".797" stroke-miterlimit="10" fill="none" stroke="#000" stroke-opacity=".9" d="m52.357 30.014 3.48 9.87"/><path stroke-width=".797" stroke-miterlimit="10" fill="none" stroke="#000" stroke-opacity=".4" d="m52.357 128.21 3.48 9.87M55.838 138.08V39.883"/></svg>